<svg width="80" height="24" viewBox="0 0 101 40" fill="none" xmlns="http://www.w3.org/2000/svg">
<rect x="30" width="10" height="40" rx="5" fill="#FF6363"/>
<rect y="20" width="10" height="20" rx="5" fill="#FF6363"/>
<rect x="15" y="10" width="10" height="30" rx="5" fill="#FF6363"/>
<path d="M52.1136 29V11.5455H54.2273V19.3182H63.5341V11.5455H65.6477V29H63.5341V21.1932H54.2273V29H52.1136ZM69.6065 29V15.9091H71.6179V29H69.6065ZM70.6293 13.7273C70.2372 13.7273 69.8991 13.5938 69.6151 13.3267C69.3366 13.0597 69.1974 12.7386 69.1974 12.3636C69.1974 11.9886 69.3366 11.6676 69.6151 11.4006C69.8991 11.1335 70.2372 11 70.6293 11C71.0213 11 71.3565 11.1335 71.6349 11.4006C71.919 11.6676 72.0611 11.9886 72.0611 12.3636C72.0611 12.7386 71.919 13.0597 71.6349 13.3267C71.3565 13.5938 71.0213 13.7273 70.6293 13.7273ZM80.5859 34.1818C79.6143 34.1818 78.7791 34.0568 78.0803 33.8068C77.3814 33.5625 76.799 33.2386 76.3331 32.8352C75.8729 32.4375 75.5064 32.0114 75.2337 31.5568L76.8359 30.4318C77.0178 30.6705 77.2479 30.9432 77.5263 31.25C77.8047 31.5625 78.1854 31.8324 78.6683 32.0597C79.157 32.2926 79.7962 32.4091 80.5859 32.4091C81.6428 32.4091 82.5149 32.1534 83.2024 31.642C83.8899 31.1307 84.2337 30.3295 84.2337 29.2386V26.5795H84.0632C83.9155 26.8182 83.7053 27.1136 83.4325 27.4659C83.1655 27.8125 82.7791 28.1222 82.2734 28.3949C81.7734 28.6619 81.0973 28.7955 80.245 28.7955C79.1882 28.7955 78.2393 28.5455 77.3984 28.0455C76.5632 27.5455 75.9013 26.8182 75.4126 25.8636C74.9297 24.9091 74.6882 23.75 74.6882 22.3864C74.6882 21.0455 74.924 19.8778 75.3956 18.8835C75.8672 17.8835 76.5234 17.1108 77.3643 16.5653C78.2053 16.0142 79.1768 15.7386 80.2791 15.7386C81.1314 15.7386 81.8075 15.8807 82.3075 16.1648C82.8132 16.4432 83.1996 16.7614 83.4666 17.1193C83.7393 17.4716 83.9496 17.7614 84.0973 17.9886H84.3018V15.9091H86.245V29.375C86.245 30.5 85.9893 31.4148 85.478 32.1193C84.9723 32.8295 84.2905 33.3494 83.4325 33.679C82.5803 34.0142 81.6314 34.1818 80.5859 34.1818ZM80.5178 26.9886C81.3246 26.9886 82.0064 26.804 82.5632 26.4347C83.12 26.0653 83.5433 25.5341 83.8331 24.8409C84.1229 24.1477 84.2678 23.3182 84.2678 22.3523C84.2678 21.4091 84.1257 20.5767 83.8416 19.8551C83.5575 19.1335 83.1371 18.5682 82.5803 18.1591C82.0234 17.75 81.3359 17.5455 80.5178 17.5455C79.6655 17.5455 78.9553 17.7614 78.3871 18.1932C77.8246 18.625 77.4013 19.2045 77.1172 19.9318C76.8388 20.6591 76.6996 21.4659 76.6996 22.3523C76.6996 23.2614 76.8416 24.0653 77.1257 24.7642C77.4155 25.4574 77.8416 26.0028 78.4041 26.4006C78.9723 26.7926 79.6768 26.9886 80.5178 26.9886ZM91.9382 21.125V29H89.9268V11.5455H91.9382V17.9545H92.1087C92.4155 17.2784 92.8757 16.7415 93.4893 16.3438C94.1087 15.9403 94.9325 15.7386 95.9609 15.7386C96.853 15.7386 97.6342 15.9176 98.3047 16.2756C98.9751 16.6278 99.495 17.1705 99.8643 17.9034C100.239 18.6307 100.427 19.5568 100.427 20.6818V29H98.4155V20.8182C98.4155 19.7784 98.1456 18.9744 97.6058 18.4062C97.0717 17.8324 96.3303 17.5455 95.3814 17.5455C94.7223 17.5455 94.1314 17.6847 93.6087 17.9631C93.0916 18.2415 92.6825 18.6477 92.3814 19.1818C92.0859 19.7159 91.9382 20.3636 91.9382 21.125Z" fill="#FF6363"/>
</svg>
