<svg width="100" height="24" viewBox="0 0 139 40" fill="none" xmlns="http://www.w3.org/2000/svg">
<rect x="30" width="10" height="40" rx="5" fill="#E1ADFF"/>
<rect y="20" width="10" height="20" rx="5" fill="#D063FF"/>
<rect x="15" y="10" width="10" height="30" rx="5" fill="#D063FF"/>
<path d="M52.1136 11.5455H54.6364L60.5682 26.0341H60.7727L66.7045 11.5455H69.2273V29H67.25V15.7386H67.0795L61.625 29H59.7159L54.2614 15.7386H54.0909V29H52.1136V11.5455ZM78.6811 29.2727C77.4197 29.2727 76.3317 28.9943 75.4169 28.4375C74.5078 27.875 73.8061 27.0909 73.3118 26.0852C72.8232 25.0739 72.5788 23.8977 72.5788 22.5568C72.5788 21.2159 72.8232 20.0341 73.3118 19.0114C73.8061 17.983 74.4936 17.1818 75.3743 16.608C76.2607 16.0284 77.2947 15.7386 78.4766 15.7386C79.1584 15.7386 79.8317 15.8523 80.4964 16.0795C81.1612 16.3068 81.7663 16.6761 82.3118 17.1875C82.8572 17.6932 83.2919 18.3636 83.6158 19.1989C83.9396 20.0341 84.1016 21.0625 84.1016 22.2841V23.1364H74.0107V21.3977H82.0561C82.0561 20.6591 81.9084 20 81.6129 19.4205C81.3232 18.8409 80.9084 18.3835 80.3686 18.0483C79.8345 17.7131 79.2038 17.5455 78.4766 17.5455C77.6754 17.5455 76.9822 17.7443 76.397 18.142C75.8175 18.5341 75.3714 19.0455 75.0589 19.6761C74.7464 20.3068 74.5902 20.983 74.5902 21.7045V22.8636C74.5902 23.8523 74.7607 24.6903 75.1016 25.3778C75.4482 26.0597 75.9283 26.5795 76.5419 26.9375C77.1555 27.2898 77.8686 27.4659 78.6811 27.4659C79.2095 27.4659 79.6868 27.392 80.1129 27.2443C80.5447 27.0909 80.9169 26.8636 81.2294 26.5625C81.5419 26.2557 81.7834 25.875 81.9538 25.4205L83.897 25.9659C83.6925 26.625 83.3487 27.2045 82.8658 27.7045C82.3828 28.1989 81.7862 28.5852 81.076 28.8636C80.3658 29.1364 79.5675 29.2727 78.6811 29.2727ZM92.1044 29.2727C91.0135 29.2727 90.0504 28.9972 89.2152 28.446C88.38 27.8892 87.7266 27.1051 87.255 26.0938C86.7834 25.0767 86.5476 23.875 86.5476 22.4886C86.5476 21.1136 86.7834 19.9205 87.255 18.9091C87.7266 17.8977 88.3828 17.1165 89.2237 16.5653C90.0646 16.0142 91.0362 15.7386 92.1385 15.7386C92.9908 15.7386 93.6641 15.8807 94.1584 16.1648C94.6584 16.4432 95.0391 16.7614 95.3004 17.1193C95.5675 17.4716 95.7749 17.7614 95.9226 17.9886H96.093V11.5455H98.1044V29H96.1612V26.9886H95.9226C95.7749 27.2273 95.5646 27.5284 95.2919 27.892C95.0192 28.25 94.63 28.571 94.1243 28.8551C93.6186 29.1335 92.9453 29.2727 92.1044 29.2727ZM92.3771 27.4659C93.1839 27.4659 93.8658 27.2557 94.4226 26.8352C94.9794 26.4091 95.4027 25.821 95.6925 25.071C95.9822 24.3153 96.1271 23.4432 96.1271 22.4545C96.1271 21.4773 95.9851 20.6222 95.701 19.8892C95.4169 19.1506 94.9964 18.5767 94.4396 18.1676C93.8828 17.7528 93.1953 17.5455 92.3771 17.5455C91.5249 17.5455 90.8146 17.7642 90.2464 18.2017C89.6839 18.6335 89.2607 19.2216 88.9766 19.9659C88.6982 20.7045 88.5589 21.5341 88.5589 22.4545C88.5589 23.3864 88.701 24.233 88.9851 24.9943C89.2749 25.75 89.701 26.3523 90.2635 26.8011C90.8317 27.2443 91.5362 27.4659 92.3771 27.4659ZM102.067 29V15.9091H104.079V29H102.067ZM103.09 13.7273C102.698 13.7273 102.36 13.5938 102.076 13.3267C101.798 13.0597 101.658 12.7386 101.658 12.3636C101.658 11.9886 101.798 11.6676 102.076 11.4006C102.36 11.1335 102.698 11 103.09 11C103.482 11 103.817 11.1335 104.096 11.4006C104.38 11.6676 104.522 11.9886 104.522 12.3636C104.522 12.7386 104.38 13.0597 104.096 13.3267C103.817 13.5938 103.482 13.7273 103.09 13.7273ZM116.013 23.6477V15.9091H118.024V29H116.013V26.7841H115.876C115.57 27.4489 115.092 28.0142 114.445 28.4801C113.797 28.9403 112.979 29.1705 111.99 29.1705C111.172 29.1705 110.445 28.9915 109.808 28.6335C109.172 28.2699 108.672 27.7244 108.308 26.9972C107.945 26.2642 107.763 25.3409 107.763 24.2273V15.9091H109.774V24.0909C109.774 25.0455 110.041 25.8068 110.575 26.375C111.115 26.9432 111.803 27.2273 112.638 27.2273C113.138 27.2273 113.646 27.0994 114.163 26.8438C114.686 26.5881 115.124 26.196 115.476 25.6676C115.834 25.1392 116.013 24.4659 116.013 23.6477ZM121.708 29V15.9091H123.651V17.9545H123.822C124.094 17.2557 124.535 16.7131 125.143 16.3267C125.751 15.9347 126.481 15.7386 127.333 15.7386C128.197 15.7386 128.915 15.9347 129.489 16.3267C130.069 16.7131 130.521 17.2557 130.844 17.9545H130.981C131.316 17.2784 131.819 16.7415 132.489 16.3438C133.16 15.9403 133.964 15.7386 134.901 15.7386C136.072 15.7386 137.029 16.1051 137.773 16.8381C138.518 17.5653 138.89 18.6989 138.89 20.2386V29H136.879V20.2386C136.879 19.2727 136.614 18.5824 136.086 18.1676C135.558 17.7528 134.935 17.5455 134.219 17.5455C133.299 17.5455 132.586 17.8239 132.08 18.3807C131.575 18.9318 131.322 19.6307 131.322 20.4773V29H129.276V20.0341C129.276 19.2898 129.035 18.6903 128.552 18.2358C128.069 17.7756 127.447 17.5455 126.685 17.5455C126.163 17.5455 125.674 17.6847 125.219 17.9631C124.771 18.2415 124.407 18.6278 124.129 19.1222C123.856 19.6108 123.719 20.1761 123.719 20.8182V29H121.708Z" fill="#D063FF"/>
</svg>
