<svg width="70" height="24" viewBox="0 0 90 40" fill="none" xmlns="http://www.w3.org/2000/svg">
<rect x="30" width="10" height="40" rx="5" fill="#D4FFC0"/>
<rect y="20" width="10" height="20" rx="5" fill="#95FF63"/>
<rect x="15" y="10" width="10" height="30" rx="5" fill="#D4FFC0"/>
<path d="M52.1136 34V16.5455H54.2273V32.125H62.3409V34H52.1136ZM70.6591 34.2727C69.4773 34.2727 68.4403 33.9915 67.5483 33.429C66.6619 32.8665 65.9688 32.0795 65.4688 31.0682C64.9744 30.0568 64.7273 28.875 64.7273 27.5227C64.7273 26.1591 64.9744 24.9687 65.4688 23.9517C65.9688 22.9347 66.6619 22.1449 67.5483 21.5824C68.4403 21.0199 69.4773 20.7386 70.6591 20.7386C71.8409 20.7386 72.875 21.0199 73.7614 21.5824C74.6534 22.1449 75.3466 22.9347 75.8409 23.9517C76.3409 24.9687 76.5909 26.1591 76.5909 27.5227C76.5909 28.875 76.3409 30.0568 75.8409 31.0682C75.3466 32.0795 74.6534 32.8665 73.7614 33.429C72.875 33.9915 71.8409 34.2727 70.6591 34.2727ZM70.6591 32.4659C71.5568 32.4659 72.2955 32.2358 72.875 31.7756C73.4545 31.3153 73.8835 30.7102 74.1619 29.9602C74.4403 29.2102 74.5795 28.3977 74.5795 27.5227C74.5795 26.6477 74.4403 25.8324 74.1619 25.0767C73.8835 24.321 73.4545 23.7102 72.875 23.2443C72.2955 22.7784 71.5568 22.5455 70.6591 22.5455C69.7614 22.5455 69.0227 22.7784 68.4432 23.2443C67.8636 23.7102 67.4347 24.321 67.1562 25.0767C66.8778 25.8324 66.7386 26.6477 66.7386 27.5227C66.7386 28.3977 66.8778 29.2102 67.1562 29.9602C67.4347 30.7102 67.8636 31.3153 68.4432 31.7756C69.0227 32.2358 69.7614 32.4659 70.6591 32.4659ZM82.1818 34L78.1932 20.9091H80.3068L83.1364 30.9318H83.2727L86.0682 20.9091H88.2159L90.9773 30.8977H91.1136L93.9432 20.9091H96.0568L92.0682 34H90.0909L87.2273 23.9432H87.0227L84.1591 34H82.1818Z" fill="#95FF63"/>
</svg>
